<svg xmlns="http://www.w3.org/2000/svg" width="230" height="165"  xmlns:xlink="http://www.w3.org/1999/xlink" viewBox="-1 -1 232 167"><rect id="svgEditorBackground" x="-1" y="-1" width="232" height="167" style="fill:none;stroke:none;"/>
 <metadata id="metadata8">image/svg+xml</metadata>
 <defs>
  <clipPath clipPathUnits="userSpaceOnUse" id="clipPath16">
   <path d="m-328.799988,231.205006l841.89,0l0,595.276l-841.89,0l0,-595.276z" id="path18"/>
  </clipPath>
 </defs>
 <g>
  <title>background</title>
  <rect fill="none" id="canvas_background" height="167" width="232" y="-1" x="-1"/>
 </g>
 <g>
  <title>Layer 1</title>
  <g id="g10" transform="matrix(1.25,0,0,-1.25,0,744.1) ">
   <g id="g12">
    <g id="g14" clip-path="url(#clipPath16)">
     <g id="g20">
      <path fill="#433f3e" fill-rule="nonzero" d="m123.019318,539.82702l-5.173,19.6l9.017,-5.255l-3.844,-14.345zm-58.893,-4.947l19.561,-5.32l-9.06,-5.18l-10.501,10.5zm-6.289,17.76l8.767,-5.11l-5.03,-8.838l-3.737,13.948zm3.433,16.242l5.173,-19.6l-9.016,5.255l3.843,14.345zm58.893,4.947l-19.561,5.32l9.06,5.181l10.501,-10.501zm-8.805,-36.744l5.964,10.311c0.063,0.109 0.096,0.233 0.096,0.359l0.006,7.655l4.819,-18.258l-10.885,-0.067zm-0.533,-1.437l10.169,0.063l-10.211,-10.21l0.042,10.147zm-1.437,-1.015l-0.043,-10.437l-14.345,-3.844l14.388,14.281zm-18.964,-14.584l-13.948,3.737l8.809,5.037l5.139,-8.774zm15.275,12.941l-13.403,-13.304l-5.5,9.394l11.911,-0.009l0,0c0.125,0 0.25,0.033 0.359,0.096l6.633,3.823zm11.008,29.37l-5.948,10.32c-0.063,0.109 -0.153,0.199 -0.262,0.262l-6.627,3.833l18.222,-4.956l-5.385,-9.459zm-42.031,-25.449l-6.381,11.072l0.009,12.779l6.397,11.062l11.072,6.381l12.779,-0.01l11.061,-6.397l6.382,-11.071l-0.009,-12.779l-6.398,-11.063l-11.072,-6.381l-12.778,0.01l-11.062,6.397zm-7.094,9.439l5.948,-10.321c0.063,-0.109 0.153,-0.199 0.262,-0.262l6.627,-3.833l-18.221,4.955l5.384,9.461zm5.349,25.274l-5.964,-10.311c-0.063,-0.109 -0.096,-0.232 -0.096,-0.358l-0.006,-7.656l-4.819,18.257l10.885,0.068zm0.533,1.437l-10.169,-0.063l10.211,10.21l-0.042,-10.147zm1.437,1.015l0.043,10.437l14.345,3.843l-14.388,-14.28zm22.592,5.553l-11.911,0.009c-0.105,-0.005 -0.249,-0.033 -0.358,-0.096l-6.633,-3.823l13.402,13.303l5.5,-9.393zm-3.628,9.031l13.948,-3.737l-8.809,-5.037l-5.139,8.774zm32.587,-32.591l-8.767,5.111l5.03,8.837l3.737,-13.948zm2.508,-1.45l-4.8,17.914c-0.046,0.173 -0.138,0.332 -0.265,0.459l-13.113,13.113c-0.127,0.127 -0.286,0.219 -0.459,0.265l-17.914,4.8c-0.173,0.047 -0.356,0.047 -0.529,0l-17.914,-4.8c-0.173,-0.046 -0.331,-0.138 -0.458,-0.265l-13.114,-13.113c-0.127,-0.127 -0.219,-0.286 -0.265,-0.459l-4.8,-17.914c-0.046,-0.173 -0.046,-0.356 0,-0.529l4.8,-17.914c0.046,-0.173 0.138,-0.332 0.265,-0.459l13.114,-13.114c0.127,-0.127 0.285,-0.217 0.458,-0.264l17.914,-4.8c0.086,-0.024 0.175,-0.035 0.265,-0.035c0.089,0 0.178,0.011 0.264,0.035l17.914,4.8c0.173,0.047 0.332,0.137 0.459,0.264l13.113,13.114c0.127,0.127 0.219,0.286 0.265,0.459l4.8,17.914c0.047,0.173 0.047,0.356 0,0.529" id="path22"/>
     </g>
     <g id="g24">
      <path fill="#433f3e" fill-rule="nonzero" d="m7.900207,496.858209l-3.926,0l0,3.365l4.087,0c1.809,0 2.003,-1.141 2.003,-1.634c0,-1.606 -1.656,-1.731 -2.164,-1.731m-3.926,-2.324l4.267,0c1.568,0 2.504,-0.67 2.504,-1.79c0,-1.333 -1.275,-1.615 -2.344,-1.615l-4.427,0l0,3.405zm7.421,1.353c0.656,0.538 1.208,1.411 1.208,2.821c0,1.798 -1.232,3.899 -4.703,3.899l-6.464,0l0,-13.86l6.805,0c3.718,0 5.042,2.004 5.042,3.881c0,1.792 -1.004,2.757 -1.888,3.259" id="path26"/>
     </g>
     <g id="g28">
      <path fill="#433f3e" fill-rule="nonzero" d="m23.895813,502.608209l-2.538,0l0,-13.862l9.765,0l0,2.403l-7.227,0l0,11.459z" id="path30"/>
     </g>
     <g id="g32">
      <path fill="#433f3e" fill-rule="nonzero" d="m64.821106,500.341608c1.858,0 3.182,-0.788 3.827,-2.274l0.133,-0.309l2.653,0l-0.239,0.667c-0.958,2.676 -3.446,4.338 -6.494,4.338c-4.077,0 -6.925,-2.914 -6.925,-7.088c0,-4.172 2.848,-7.085 6.925,-7.085c3.048,0 5.536,1.662 6.494,4.338l0.239,0.667l-2.653,0l-0.133,-0.309c-0.645,-1.487 -1.969,-2.274 -3.827,-2.274c-2.738,0 -4.506,1.831 -4.506,4.663c0,2.834 1.768,4.666 4.506,4.666" id="path34"/>
     </g>
     <g id="g36">
      <path fill="#433f3e" fill-rule="nonzero" d="m91.912414,502.608209l-3.632,0l-6.643,-6.044l0,6.044l-2.539,0l0,-13.862l2.539,0l0,4.498l2.156,1.955l4.994,-6.453l3.179,0l-6.312,8.136l6.258,5.726z" id="path38"/>
     </g>
     <g id="g40">
      <path fill="#433f3e" fill-rule="nonzero" d="m119.557404,491.130701l-4.146,0c-1.619,0 -2.625,0.818 -2.625,2.138c0,1.76 1.694,2.023 2.706,2.023l4.065,0l0,-4.161zm-9.309,2.138c0,-2.747 1.957,-4.523 4.983,-4.523l6.864,0l0,13.863l-2.538,0l0,-4.934l-3.801,0l-3.203,4.934l-3.021,0l3.62,-5.391c-2.379,-0.797 -2.904,-2.555 -2.904,-3.949" id="path42"/>
     </g>
     <g id="g44">
      <path fill="#433f3e" fill-rule="nonzero" d="m139.202026,494.744897c0,-2.751 -1.873,-3.732 -3.625,-3.732c-1.743,0 -3.605,0.981 -3.605,3.732l0,7.863l-2.539,0l0,-7.825c0,-3.646 2.527,-6.192 6.144,-6.192c3.629,0 6.163,2.546 6.163,6.192l0,7.825l-2.538,0l0,-7.863z" id="path46"/>
     </g>
     <g id="g48">
      <path fill="#433f3e" fill-rule="nonzero" d="m156.918701,496.858209l-3.926,0l0,3.365l4.087,0c1.809,0 2.003,-1.141 2.003,-1.634c0,-1.606 -1.656,-1.731 -2.164,-1.731m-3.926,-2.324l4.267,0c1.568,0 2.504,-0.67 2.504,-1.79c0,-1.333 -1.275,-1.615 -2.344,-1.615l-4.427,0l0,3.405zm7.421,1.353c0.656,0.538 1.208,1.411 1.208,2.821c0,1.798 -1.232,3.899 -4.703,3.899l-6.464,0l0,-13.86l6.805,0c3.718,0 5.042,2.004 5.042,3.881c0,1.792 -1.004,2.757 -1.888,3.259" id="path50"/>
     </g>
     <g id="g52">
      <path fill="#433f3e" fill-rule="nonzero" d="m179.773224,502.608209l-4.215,-5.877l-4.214,5.877l-3.081,0l6.036,-8.43l0,-5.432l2.539,0l0,5.432l6.016,8.43l-3.081,0z" id="path54"/>
     </g>
     <g id="g56">
      <path fill="#433f3e" fill-rule="nonzero" d="m45.5018,502.608209l-2.567,0l-6.065,-13.862l2.788,0l4.561,10.542l4.561,-10.542l2.787,0l-6.065,13.862z" id="path58"/>
     </g>
     <g id="g60">
      <path fill="#433f3e" fill-rule="nonzero" d="m63.235199,471.846506c-1.123,0.265 -2.183,0.514 -2.183,1.121c0,0.884 1.028,1.07 1.891,1.07c1.2,0 1.913,-0.425 2.008,-1.197l0.035,-0.282l1.605,0l-0.021,0.341c-0.078,1.283 -1.072,2.652 -3.627,2.652c-2.169,0 -3.464,-0.972 -3.464,-2.597c0,-1.783 1.921,-2.241 3.463,-2.609c1.357,-0.325 2.246,-0.584 2.246,-1.207c0,-0.985 -1.233,-1.133 -1.968,-1.133c-0.853,0 -2.295,0.179 -2.358,1.373l-0.016,0.305l-1.647,0l0.029,-0.349c0.091,-1.066 0.722,-2.854 3.929,-2.854c2.272,0 3.629,1.007 3.629,2.696c0,1.835 -1.969,2.298 -3.551,2.67" id="path62"/>
     </g>
     <g id="g64">
      <path fill="#433f3e" fill-rule="nonzero" d="m70.948517,473.913904l2.911,0l0,-7.334l1.598,0l0,7.334l2.911,0l0,1.538l-7.42,0l0,-1.538z" id="path66"/>
     </g>
     <g id="g68">
      <path fill="#433f3e" fill-rule="nonzero" d="m89.160004,470.41871c0,-1.761 -1.179,-2.389 -2.282,-2.389c-1.097,0 -2.27,0.628 -2.27,2.389l0,5.032l-1.598,0l0,-5.008c0,-2.333 1.591,-3.962 3.868,-3.962c2.284,0 3.88,1.629 3.88,3.962l0,5.008l-1.598,0l0,-5.032z" id="path70"/>
     </g>
     <g id="g72">
      <path fill="#433f3e" fill-rule="nonzero" d="m97.841614,473.925607l2.207,0c1.505,0 2.598,-1.224 2.598,-2.911c0,-1.685 -1.093,-2.908 -2.598,-2.908l-2.207,0l0,5.819zm2.245,1.526l-3.843,0l0,-8.872l3.843,0c2.016,0 4.157,1.555 4.157,4.435c0,2.883 -2.141,4.437 -4.157,4.437" id="path74"/>
     </g>
     <path fill="#433f3e" fill-rule="nonzero" d="m109.315012,466.580006l1.598,0l0,8.871l-1.598,0l0,-8.871z" id="path76"/>
     <g id="g78">
      <path fill="#433f3e" fill-rule="nonzero" d="m120.530121,468.0301c-1.744,0 -2.963,1.229 -2.963,2.985c0,1.758 1.219,2.987 2.963,2.987c1.744,0 2.963,-1.229 2.963,-2.987c0,-1.756 -1.219,-2.985 -2.963,-2.985m0,7.521c-2.643,0 -4.561,-1.908 -4.561,-4.536c0,-2.628 1.918,-4.535 4.561,-4.535c2.644,0 4.562,1.907 4.562,4.535c0,2.628 -1.918,4.536 -4.562,4.536" id="path80"/>
     </g>
    </g>
   </g>
  </g>
 </g>
</svg>